<svg xmlns="http://www.w3.org/2000/svg" width="270" height="120" fill="none"><rect width="270" height="120" fill="#F5F4FA" rx="4"/><g clip-path="url(#a)"><path fill="#212121" d="M168.5 58.5a33.5 33.5 0 1 0-43.3 32c.3 0 .5-.1.8-.3.3-.1.5-.4.6-.8l8.4-26.7a4.2 4.2 0 1 0-1.8-8L122 43.5a1.4 1.4 0 0 0-2 2l11.2 11.2a4.1 4.1 0 0 0 1.2 5l-8 25.6a30.7 30.7 0 1 1 23-.8l-.8-4.1a1.4 1.4 0 0 0-2.3-.8l-8.4 7.5a1.4 1.4 0 0 0 .5 2.4l10.7 3.4a1.4 1.4 0 0 0 1.8-1.6l-.8-4a33.4 33.4 0 0 0 20.4-30.8ZM135 57a1.4 1.4 0 1 1 0 2.8 1.4 1.4 0 0 1 0-2.8Zm4.6 32.5 4.8-4.3 1.3 6.2-6.1-2Z"/><path fill="#2196F3" d="M133.6 32v2.8a1.4 1.4 0 1 0 2.8 0V32a1.4 1.4 0 0 0-2.8 0ZM108.5 57a1.4 1.4 0 1 0 0 2.9h2.8a1.4 1.4 0 0 0 0-2.8h-2.8ZM161.5 59.9a1.4 1.4 0 0 0 0-2.8h-2.8a1.4 1.4 0 1 0 0 2.8h2.8Z"/></g><defs><clipPath id="a"><path fill="#fff" d="M100 25h70v70h-70z"/></clipPath></defs></svg>